<?xml version="1.0" encoding="UTF-8" standalone="no"?>
<!DOCTYPE svg PUBLIC "-//W3C//DTD SVG 1.1//EN" "http://www.w3.org/Graphics/SVG/1.1/DTD/svg11.dtd">
<svg width="100%" height="100%" viewBox="0 0 158 158" version="1.1" xmlns="http://www.w3.org/2000/svg" xmlns:xlink="http://www.w3.org/1999/xlink" xml:space="preserve" xmlns:serif="http://www.serif.com/" style="fill-rule:evenodd;clip-rule:evenodd;stroke-linejoin:round;stroke-miterlimit:2;">
    <g transform="matrix(1,0,0,1,-196.39,-156.39)">
        <path d="M205.149,235C205.149,196.422 236.423,165.149 275,165.149C313.578,165.149 344.851,196.422 344.851,235C344.851,273.577 313.578,304.851 275,304.851C236.423,304.851 205.149,273.577 205.149,235ZM337.538,235C337.538,200.49 309.51,172.463 275,172.463C240.49,172.463 212.463,200.49 212.463,235C212.463,269.51 240.49,297.537 275,297.537C309.51,297.537 337.538,269.51 337.538,235ZM254.157,255.868C254.157,259.203 248.946,259.203 248.946,255.868L248.946,214.173C248.946,212.714 249.99,211.465 251.45,211.465C252.909,211.465 254.157,212.714 254.157,214.173L254.157,255.868ZM316.7,255.868C316.7,259.412 311.488,259.412 311.488,255.868L311.488,214.173C311.488,212.714 312.527,211.465 313.987,211.465C315.447,211.465 316.7,212.714 316.7,214.173L316.7,255.868ZM277.509,253.16C277.718,256.704 272.297,256.704 272.297,253.16L272.297,216.886C272.297,215.426 273.546,214.173 275.005,214.173C276.464,214.173 277.718,215.426 277.509,216.886L277.509,253.16ZM261.874,248.157C261.874,251.492 256.87,251.492 256.662,248.157L256.662,221.889C256.662,220.429 257.91,219.385 259.369,219.385C260.829,219.176 262.082,220.429 261.874,221.889L261.874,248.157ZM308.984,248.157C308.775,251.492 303.772,251.492 303.772,248.157L303.772,221.889C303.564,220.429 304.817,219.385 306.276,219.385C307.736,219.176 308.984,220.429 308.984,221.889L308.984,248.157ZM285.429,245.444C285.429,248.988 280.217,248.988 280.217,245.444L280.217,224.597C280.217,223.137 281.262,221.889 282.721,221.889C284.18,221.889 285.429,223.137 285.429,224.597L285.429,245.444ZM246.238,242.945C246.238,246.281 241.026,246.281 241.026,242.945L241.026,227.101C241.026,225.641 242.274,224.597 243.734,224.597C245.193,224.388 246.446,225.641 246.238,227.101L246.238,242.945ZM293.348,240.232C293.14,243.568 288.136,243.568 288.136,240.232L288.136,229.808C287.928,228.349 289.181,227.101 290.641,227.101C292.1,227.101 293.348,228.349 293.348,229.808L293.348,240.232ZM238.522,237.733C238.522,241.069 233.31,241.069 233.31,237.733L233.31,232.313C233.31,230.853 234.355,229.808 235.814,229.808C237.274,229.6 238.522,230.853 238.522,232.313L238.522,237.733ZM267.085,229.808C268.545,229.808 269.793,231.062 269.793,232.521L269.793,237.524C269.793,241.068 264.581,241.068 264.581,237.524L264.581,232.521C264.581,231.062 265.626,230.017 266.877,229.808L267.085,229.808ZM301.064,237.733C301.064,241.069 295.852,241.069 295.852,237.733L295.852,232.313C295.852,230.853 296.892,229.808 298.352,229.808C299.811,229.808 301.064,230.853 301.064,232.313L301.064,237.733ZM353.595,236.549L353.577,237.334L353.551,238.119L353.517,238.904L353.475,239.689L353.426,240.473L353.369,241.257L353.304,242.04L353.232,242.822L353.151,243.604L353.063,244.386L352.967,245.166L352.863,245.945L352.751,246.724L352.632,247.501L352.504,248.276L352.369,249.051L352.225,249.825L352.074,250.596L351.915,251.367L351.748,252.135L351.573,252.902L351.39,253.667L351.2,254.43L351.001,255.191L350.795,255.95L350.581,256.707L350.36,257.461L350.131,258.214L349.894,258.964L349.65,259.711L349.399,260.456L349.139,261.198L348.873,261.938L348.599,262.675L348.318,263.409L348.03,264.14L347.735,264.868L347.432,265.593L347.254,266.011L346.942,266.728L346.622,267.445L346.294,268.159L345.959,268.87L345.618,269.578L345.269,270.282L344.914,270.983L344.551,271.681L344.181,272.374L343.804,273.065L343.42,273.751L343.03,274.433L342.632,275.112L342.228,275.786L341.816,276.456L341.399,277.122L340.974,277.784L340.542,278.441L340.104,279.095L339.659,279.743L339.207,280.387L338.749,281.026L338.285,281.661L337.814,282.29L337.337,282.916L336.854,283.536L336.364,284.151L335.869,284.761L335.367,285.366L334.859,285.967L334.345,286.561L333.826,287.151L333.301,287.736L332.77,288.315L332.234,288.889L331.692,289.458L331.144,290.021L330.592,290.58L330.27,290.899L329.712,291.447L329.146,291.991L328.574,292.53L327.997,293.063L327.415,293.591L326.828,294.113L326.235,294.629L325.637,295.139L325.034,295.644L324.426,296.142L323.813,296.634L323.195,297.12L322.573,297.6L321.945,298.074L321.313,298.541L320.675,299.002L320.034,299.456L319.387,299.904L318.736,300.345L318.081,300.78L317.421,301.208L316.757,301.629L316.088,302.043L315.416,302.451L314.739,302.851L314.059,303.245L313.374,303.632L312.686,304.012L311.993,304.385L311.298,304.751L310.598,305.11L309.895,305.462L309.189,305.806L308.48,306.144L307.767,306.475L307.051,306.799L306.332,307.115L305.609,307.425L304.896,307.723L304.168,308.019L303.437,308.307L302.703,308.588L301.967,308.862L301.228,309.129L300.486,309.389L299.741,309.641L298.993,309.885L298.244,310.122L297.491,310.351L296.737,310.573L295.981,310.787L295.222,310.993L294.461,311.192L293.698,311.383L292.933,311.566L292.166,311.741L291.398,311.908L290.627,312.068L289.856,312.219L289.083,312.363L288.308,312.499L287.532,312.627L286.755,312.747L285.976,312.859L285.197,312.963L284.417,313.06L283.635,313.148L282.853,313.229L282.071,313.301L281.288,313.367L280.504,313.424L279.719,313.473L278.934,313.515L278.15,313.549L277.364,313.576L276.579,313.595L275.794,313.606L275.009,313.61L274.236,313.606L273.451,313.595L272.666,313.577L271.881,313.551L271.096,313.517L270.311,313.475L269.527,313.426L268.743,313.369L267.96,313.304L267.177,313.232L266.395,313.151L265.614,313.063L264.834,312.967L264.055,312.863L263.276,312.751L262.499,312.632L261.723,312.504L260.948,312.369L260.175,312.225L259.403,312.074L258.633,311.915L257.865,311.748L257.098,311.573L256.333,311.39L255.57,311.2L254.809,311.001L254.05,310.795L253.293,310.581L252.538,310.36L251.786,310.131L251.036,309.894L250.289,309.65L249.544,309.399L248.802,309.139L248.062,308.873L247.325,308.599L246.591,308.319L245.86,308.03L245.132,307.735L244.407,307.432L243.989,307.254L243.273,306.942L242.555,306.622L241.841,306.294L241.13,305.96L240.422,305.618L239.718,305.269L239.017,304.914L238.32,304.551L237.626,304.181L236.936,303.804L236.249,303.421L235.567,303.03L234.889,302.632L234.214,302.228L233.544,301.816L232.878,301.398L232.216,300.974L231.559,300.542L230.906,300.104L230.257,299.659L229.613,299.207L228.974,298.75L228.339,298.285L227.71,297.814L227.085,297.337L226.464,296.854L225.849,296.364L225.239,295.869L224.634,295.367L224.034,294.859L223.439,294.345L222.849,293.826L222.264,293.301L221.685,292.77L221.111,292.234L220.542,291.692L219.979,291.145L219.421,290.592L219.1,290.27L218.553,289.712L218.009,289.145L217.47,288.574L216.937,287.997L216.409,287.415L215.887,286.827L215.371,286.235L214.861,285.637L214.356,285.034L213.858,284.426L213.366,283.813L212.88,283.195L212.4,282.573L211.926,281.945L211.459,281.312L210.998,280.675L210.544,280.033L210.096,279.387L209.655,278.736L209.22,278.081L208.792,277.421L208.371,276.757L207.957,276.088L207.549,275.416L207.148,274.739L206.755,274.058L206.368,273.374L205.988,272.685L205.615,271.993L205.249,271.297L204.89,270.598L204.538,269.895L204.193,269.189L203.855,268.479L203.525,267.766L203.201,267.05L202.884,266.331L202.575,265.609L202.277,264.896L201.981,264.168L201.693,263.438L201.412,262.704L201.138,261.967L200.871,261.228L200.611,260.485L200.36,259.741L200.115,258.994L199.878,258.244L199.649,257.492L199.427,256.737L199.213,255.981L199.007,255.222L198.808,254.461L198.617,253.698L198.434,252.933L198.259,252.166L198.092,251.398L197.932,250.628L197.781,249.856L197.637,249.082L197.501,248.308L197.373,247.532L197.253,246.755L197.141,245.976L197.037,245.197L196.94,244.417L196.852,243.635L196.771,242.853L196.698,242.071L196.633,241.288L196.576,240.504L196.526,239.719L196.485,238.935L196.451,238.15L196.424,237.364L196.405,236.579L196.394,235.794L196.39,235.009L196.394,234.236L196.405,233.451L196.423,232.666L196.449,231.881L196.483,231.096L196.525,230.311L196.574,229.527L196.631,228.743L196.696,227.96L196.768,227.177L196.848,226.395L196.937,225.614L197.033,224.834L197.137,224.054L197.249,223.276L197.368,222.499L197.496,221.723L197.631,220.948L197.775,220.175L197.926,219.403L198.085,218.633L198.252,217.865L198.427,217.098L198.61,216.333L198.8,215.57L198.999,214.809L199.205,214.05L199.418,213.293L199.64,212.538L199.869,211.786L200.105,211.036L200.35,210.289L200.601,209.544L200.86,208.802L201.127,208.062L201.401,207.325L201.682,206.591L201.97,205.86L202.265,205.132L202.568,204.407L202.746,203.989L203.058,203.272L203.378,202.555L203.706,201.841L204.04,201.13L204.382,200.422L204.731,199.718L205.086,199.017L205.449,198.319L205.819,197.626L206.196,196.936L206.58,196.249L206.97,195.567L207.368,194.889L207.772,194.214L208.184,193.544L208.602,192.878L209.026,192.216L209.458,191.559L209.896,190.906L210.341,190.257L210.793,189.613L211.251,188.974L211.715,188.339L212.186,187.709L212.663,187.084L213.146,186.464L213.636,185.849L214.131,185.239L214.633,184.634L215.141,184.034L215.654,183.439L216.174,182.849L216.699,182.264L217.23,181.685L217.766,181.111L218.308,180.542L218.855,179.979L219.408,179.42L219.73,179.1L220.288,178.553L220.854,178.009L221.426,177.47L222.003,176.937L222.585,176.409L223.173,175.887L223.765,175.371L224.363,174.861L224.966,174.356L225.574,173.858L226.187,173.366L226.805,172.88L227.427,172.4L228.055,171.926L228.687,171.459L229.325,170.998L229.966,170.544L230.613,170.096L231.264,169.655L231.919,169.22L232.579,168.792L233.243,168.371L233.912,167.957L234.584,167.549L235.261,167.148L235.941,166.755L236.626,166.368L237.314,165.988L238.007,165.615L238.702,165.249L239.402,164.89L240.105,164.538L240.811,164.193L241.521,163.855L242.233,163.525L242.949,163.201L243.669,162.884L244.391,162.575L245.104,162.277L245.832,161.981L246.562,161.693L247.296,161.411L248.033,161.137L248.772,160.871L249.514,160.611L250.259,160.359L251.006,160.115L251.756,159.878L252.508,159.649L253.263,159.427L254.019,159.213L254.778,159.007L255.539,158.808L256.302,158.617L257.067,158.434L257.834,158.259L258.602,158.092L259.372,157.932L260.144,157.781L260.917,157.637L261.692,157.501L262.468,157.373L263.245,157.253L264.023,157.141L264.803,157.037L265.583,156.94L266.364,156.852L267.146,156.771L267.929,156.698L268.712,156.633L269.496,156.576L270.281,156.526L271.065,156.484L271.85,156.45L272.635,156.424L273.421,156.405L274.206,156.394L274.991,156.39L275.764,156.393L276.549,156.404L277.334,156.423L278.119,156.449L278.904,156.483L279.689,156.525L280.473,156.574L281.257,156.631L282.04,156.695L282.823,156.768L283.605,156.848L284.386,156.937L285.166,157.033L285.946,157.137L286.724,157.248L287.501,157.368L288.277,157.496L289.052,157.631L289.825,157.775L290.597,157.926L291.367,158.085L292.135,158.252L292.902,158.427L293.667,158.61L294.43,158.8L295.191,158.999L295.95,159.205L296.707,159.418L297.462,159.64L298.214,159.869L298.964,160.105L299.711,160.349L300.456,160.601L301.199,160.86L301.938,161.127L302.675,161.4L303.409,161.681L304.14,161.97L304.868,162.265L305.593,162.568L306.011,162.745L306.728,163.057L307.445,163.378L308.159,163.706L308.87,164.04L309.578,164.382L310.282,164.731L310.983,165.086L311.681,165.449L312.374,165.819L313.064,166.196L313.75,166.579L314.433,166.97L315.112,167.368L315.786,167.772L316.456,168.183L317.122,168.602L317.784,169.026L318.441,169.458L319.094,169.896L319.743,170.341L320.387,170.792L321.026,171.25L321.661,171.715L322.29,172.186L322.915,172.663L323.535,173.146L324.151,173.636L324.761,174.131L325.366,174.633L325.966,175.141L326.561,175.654L327.151,176.174L327.736,176.699L328.315,177.23L328.889,177.766L329.458,178.308L330.021,178.855L330.579,179.408L330.899,179.73L331.447,180.288L331.991,180.854L332.529,181.426L333.063,182.003L333.59,182.585L334.113,183.172L334.629,183.765L335.139,184.363L335.643,184.966L336.142,185.574L336.634,186.186L337.12,186.804L337.6,187.427L338.074,188.055L338.541,188.687L339.002,189.324L339.456,189.966L339.904,190.613L340.345,191.264L340.78,191.919L341.208,192.579L341.629,193.243L342.043,193.911L342.451,194.584L342.851,195.261L343.245,195.941L343.632,196.626L344.012,197.314L344.385,198.006L344.751,198.702L345.11,199.402L345.462,200.104L345.806,200.811L346.144,201.52L346.475,202.233L346.799,202.949L347.115,203.668L347.425,204.39L347.723,205.104L348.019,205.832L348.307,206.562L348.588,207.296L348.862,208.033L349.129,208.772L349.389,209.514L349.64,210.259L349.885,211.006L350.122,211.756L350.351,212.508L350.573,213.263L350.787,214.019L350.993,214.778L351.192,215.539L351.382,216.302L351.565,217.067L351.741,217.834L351.908,218.602L352.068,219.372L352.219,220.144L352.363,220.917L352.498,221.692L352.627,222.468L352.747,223.245L352.859,224.023L352.963,224.803L353.06,225.583L353.148,226.364L353.229,227.146L353.301,227.929L353.367,228.712L353.424,229.496L353.473,230.28L353.515,231.065L353.549,231.85L353.576,232.635L353.595,233.421L353.606,234.206L353.61,234.991L353.61,235.009L353.606,235.764L353.595,236.549ZM349.918,234.259L349.908,233.509L349.89,232.759L349.865,232.01L349.832,231.261L349.793,230.513L349.746,229.764L349.691,229.017L349.629,228.27L349.56,227.524L349.483,226.779L349.399,226.035L349.308,225.291L349.208,224.549L349.102,223.808L348.988,223.068L348.866,222.329L348.737,221.591L348.6,220.855L348.456,220.12L348.304,219.387L348.145,218.655L347.978,217.925L347.804,217.197L347.623,216.47L347.434,215.745L347.238,215.023L347.034,214.302L346.823,213.583L346.605,212.867L346.379,212.153L346.147,211.441L345.907,210.731L345.66,210.023L345.406,209.319L345.144,208.616L344.877,207.916L344.601,207.219L344.319,206.524L344.035,205.844L343.74,205.155L343.438,204.468L343.13,203.785L342.814,203.105L342.492,202.429L342.164,201.755L341.829,201.085L341.486,200.419L341.138,199.756L340.783,199.096L340.421,198.44L340.053,197.788L339.678,197.14L339.296,196.495L338.908,195.855L338.514,195.218L338.113,194.585L337.706,193.957L337.292,193.333L336.872,192.713L336.446,192.097L336.013,191.486L335.574,190.879L335.129,190.276L334.678,189.678L334.221,189.085L333.758,188.496L333.289,187.912L332.814,187.332L332.334,186.757L331.847,186.187L331.355,185.622L330.858,185.062L330.354,184.506L329.846,183.955L329.331,183.41L328.812,182.869L328.284,182.33L327.984,182.028L327.452,181.501L326.914,180.978L326.371,180.461L325.823,179.949L325.271,179.442L324.713,178.941L324.151,178.446L323.584,177.956L323.012,177.472L322.436,176.994L321.854,176.521L321.268,176.055L320.678,175.594L320.082,175.14L319.483,174.691L318.878,174.249L318.269,173.812L317.656,173.382L317.039,172.958L316.417,172.541L315.791,172.13L315.161,171.725L314.527,171.327L313.888,170.935L313.247,170.55L312.6,170.171L311.95,169.798L311.296,169.433L310.639,169.074L309.978,168.721L309.314,168.375L308.646,168.036L307.974,167.703L307.299,167.377L306.621,167.058L305.94,166.745L305.256,166.439L304.565,166.138L304.173,165.971L303.481,165.683L302.787,165.401L302.089,165.126L301.39,164.857L300.688,164.596L299.983,164.342L299.276,164.095L298.566,163.855L297.854,163.622L297.14,163.397L296.423,163.179L295.705,162.968L294.984,162.764L294.261,162.568L293.537,162.379L292.81,162.197L292.082,162.023L291.352,161.856L290.62,161.697L289.887,161.545L289.152,161.401L288.416,161.264L287.678,161.135L286.939,161.013L286.199,160.899L285.458,160.792L284.715,160.693L283.972,160.601L283.227,160.517L282.482,160.44L281.736,160.371L280.989,160.309L280.242,160.255L279.494,160.208L278.745,160.168L277.996,160.135L277.247,160.11L276.497,160.092L275.747,160.082L275.009,160.078L274.259,160.081L273.509,160.092L272.759,160.11L272.01,160.135L271.261,160.168L270.513,160.207L269.764,160.254L269.017,160.309L268.27,160.371L267.524,160.44L266.779,160.516L266.035,160.601L265.291,160.692L264.549,160.791L263.808,160.898L263.068,161.012L262.329,161.134L261.591,161.263L260.855,161.4L260.12,161.544L259.387,161.696L258.655,161.855L257.925,162.021L257.197,162.195L256.47,162.377L255.745,162.566L255.023,162.762L254.302,162.966L253.583,163.177L252.867,163.395L252.153,163.62L251.44,163.853L250.731,164.093L250.023,164.34L249.319,164.594L248.616,164.855L247.916,165.123L247.219,165.398L246.524,165.68L245.844,165.964L245.155,166.26L244.469,166.562L243.786,166.87L243.106,167.186L242.429,167.507L241.756,167.836L241.085,168.171L240.419,168.513L239.756,168.862L239.096,169.217L238.44,169.579L237.788,169.947L237.14,170.322L236.495,170.703L235.855,171.091L235.218,171.486L234.586,171.887L233.957,172.294L233.333,172.708L232.713,173.128L232.097,173.554L231.486,173.987L230.879,174.426L230.276,174.87L229.678,175.321L229.085,175.779L228.496,176.242L227.912,176.711L227.332,177.185L226.757,177.666L226.187,178.153L225.622,178.645L225.062,179.142L224.506,179.646L223.956,180.154L223.41,180.668L222.869,181.188L222.331,181.715L222.028,182.016L221.501,182.549L220.978,183.086L220.461,183.629L219.949,184.177L219.442,184.729L218.941,185.287L218.446,185.849L217.956,186.416L217.472,186.988L216.994,187.565L216.521,188.146L216.055,188.732L215.594,189.323L215.14,189.918L214.691,190.518L214.249,191.122L213.812,191.731L213.382,192.344L212.959,192.961L212.541,193.583L212.13,194.209L211.725,194.839L211.327,195.473L210.935,196.111L210.55,196.754L210.171,197.4L209.798,198.05L209.433,198.703L209.074,199.361L208.721,200.022L208.375,200.686L208.036,201.354L207.703,202.026L207.377,202.701L207.058,203.379L206.745,204.06L206.439,204.744L206.139,205.435L205.971,205.827L205.683,206.519L205.401,207.213L205.126,207.911L204.858,208.61L204.596,209.313L204.342,210.017L204.095,210.725L203.855,211.434L203.623,212.146L203.397,212.861L203.179,213.577L202.968,214.296L202.764,215.016L202.568,215.739L202.379,216.463L202.197,217.19L202.023,217.918L201.856,218.648L201.697,219.38L201.545,220.113L201.401,220.848L201.264,221.584L201.135,222.322L201.013,223.061L200.899,223.801L200.792,224.543L200.693,225.285L200.602,226.028L200.517,226.773L200.441,227.518L200.371,228.264L200.309,229.011L200.255,229.759L200.208,230.506L200.168,231.255L200.135,232.004L200.11,232.754L200.092,233.503L200.082,234.253L200.078,234.991L200.082,235.741L200.092,236.491L200.11,237.24L200.135,237.99L200.168,238.739L200.207,239.487L200.254,240.236L200.309,240.983L200.371,241.729L200.44,242.476L200.517,243.221L200.601,243.965L200.692,244.709L200.792,245.451L200.898,246.192L201.012,246.932L201.134,247.671L201.263,248.409L201.4,249.145L201.544,249.88L201.696,250.613L201.855,251.345L202.021,252.075L202.195,252.803L202.377,253.53L202.566,254.254L202.762,254.977L202.966,255.698L203.177,256.417L203.395,257.133L203.621,257.847L203.853,258.559L204.093,259.269L204.34,259.976L204.594,260.681L204.855,261.384L205.124,262.084L205.399,262.781L205.681,263.476L205.964,264.156L206.26,264.845L206.562,265.531L206.87,266.214L207.186,266.894L207.508,267.571L207.836,268.244L208.171,268.914L208.513,269.581L208.862,270.244L209.217,270.904L209.579,271.56L209.947,272.212L210.322,272.86L210.704,273.505L211.092,274.145L211.486,274.782L211.887,275.414L212.294,276.043L212.708,276.667L213.128,277.287L213.554,277.903L213.987,278.514L214.426,279.121L214.87,279.724L215.321,280.322L215.779,280.915L216.242,281.504L216.711,282.088L217.185,282.668L217.666,283.243L218.153,283.813L218.645,284.378L219.142,284.938L219.646,285.494L220.154,286.044L220.668,286.59L221.188,287.131L221.715,287.669L222.016,287.972L222.549,288.5L223.086,289.022L223.629,289.539L224.177,290.051L224.729,290.558L225.287,291.059L225.849,291.554L226.416,292.044L226.988,292.528L227.565,293.006L228.146,293.479L228.732,293.945L229.323,294.406L229.918,294.86L230.518,295.309L231.122,295.752L231.731,296.188L232.344,296.618L232.961,297.042L233.583,297.459L234.209,297.87L234.839,298.275L235.473,298.673L236.112,299.065L236.754,299.45L237.4,299.829L238.05,300.201L238.704,300.567L239.361,300.927L240.022,301.279L240.687,301.625L241.355,301.964L242.026,302.297L242.701,302.623L243.379,302.942L244.06,303.255L244.745,303.561L245.436,303.862L245.827,304.028L246.519,304.317L247.214,304.599L247.911,304.874L248.61,305.142L249.313,305.403L250.018,305.658L250.725,305.905L251.434,306.145L252.146,306.377L252.861,306.603L253.577,306.821L254.296,307.032L255.016,307.236L255.739,307.432L256.464,307.621L257.19,307.803L257.918,307.977L258.648,308.144L259.38,308.303L260.113,308.455L260.848,308.599L261.585,308.736L262.322,308.865L263.061,308.987L263.801,309.101L264.543,309.208L265.285,309.307L266.029,309.398L266.773,309.483L267.518,309.559L268.265,309.629L269.011,309.691L269.759,309.745L270.507,309.792L271.255,309.832L272.004,309.865L272.754,309.89L273.503,309.908L274.253,309.918L274.991,309.922L275.741,309.918L276.491,309.908L277.24,309.89L277.99,309.865L278.739,309.832L279.487,309.793L280.235,309.746L280.983,309.691L281.729,309.629L282.476,309.56L283.221,309.483L283.965,309.399L284.708,309.308L285.451,309.208L286.192,309.102L286.932,308.988L287.671,308.866L288.409,308.737L289.145,308.6L289.88,308.456L290.613,308.304L291.345,308.145L292.075,307.979L292.803,307.805L293.53,307.623L294.254,307.434L294.977,307.238L295.698,307.034L296.417,306.823L297.133,306.605L297.848,306.38L298.559,306.147L299.269,305.907L299.977,305.66L300.681,305.406L301.384,305.145L302.083,304.877L302.781,304.601L303.476,304.32L304.157,304.036L304.846,303.74L305.532,303.438L306.215,303.13L306.894,302.814L307.571,302.492L308.245,302.164L308.915,301.829L309.581,301.487L310.245,301.138L310.904,300.783L311.56,300.421L312.212,300.053L312.861,299.678L313.505,299.297L314.146,298.909L314.782,298.514L315.415,298.113L316.043,297.706L316.667,297.292L317.287,296.872L317.903,296.446L318.514,296.013L319.121,295.575L319.724,295.13L320.322,294.678L320.915,294.222L321.504,293.758L322.089,293.29L322.668,292.815L323.243,292.334L323.813,291.847L324.378,291.356L324.939,290.858L325.494,290.354L326.045,289.846L326.59,289.332L327.131,288.812L327.67,288.284L327.972,287.984L328.5,287.452L329.022,286.914L329.539,286.371L330.051,285.824L330.558,285.271L331.059,284.714L331.554,284.151L332.044,283.584L332.528,283.012L333.006,282.436L333.479,281.854L333.945,281.268L334.406,280.678L334.86,280.082L335.309,279.483L335.752,278.878L336.188,278.269L336.618,277.656L337.042,277.039L337.459,276.417L337.87,275.791L338.275,275.161L338.673,274.527L339.065,273.889L339.45,273.247L339.829,272.601L340.201,271.95L340.567,271.297L340.927,270.639L341.279,269.978L341.625,269.314L341.964,268.646L342.297,267.974L342.623,267.299L342.942,266.621L343.255,265.94L343.561,265.256L343.861,264.565L344.028,264.173L344.317,263.481L344.599,262.786L344.874,262.089L345.142,261.39L345.403,260.687L345.658,259.982L345.905,259.275L346.145,258.566L346.377,257.854L346.603,257.139L346.821,256.423L347.032,255.704L347.236,254.984L347.432,254.261L347.621,253.537L347.803,252.81L347.977,252.082L348.144,251.352L348.303,250.62L348.455,249.887L348.599,249.152L348.736,248.415L348.865,247.678L348.986,246.939L349.101,246.199L349.208,245.457L349.307,244.715L349.398,243.971L349.483,243.227L349.559,242.482L349.629,241.735L349.691,240.989L349.745,240.241L349.792,239.493L349.832,238.745L349.865,237.996L349.89,237.246L349.908,236.497L349.918,235.747L349.922,235.009L349.922,234.991L349.918,234.259Z" style="fill:white;fill-rule:nonzero;"/>
    </g>
</svg>
